<mxfile host="app.diagrams.net" modified="2023-08-25T08:39:45.640Z" agent="Mozilla/5.0 (Macintosh; Intel Mac OS X 10_15_7) AppleWebKit/537.36 (KHTML, like Gecko) Chrome/115.0.0.0 Safari/537.36" etag="jLKAeZ0DoXNavL13xCHA" version="21.2.9" type="google">
  <diagram id="C5RBs43oDa-KdzZeNtuy" name="Page-1">
    <mxGraphModel grid="1" page="1" gridSize="10" guides="1" tooltips="1" connect="1" arrows="1" fold="1" pageScale="1" pageWidth="3300" pageHeight="4681" math="0" shadow="0">
      <root>
        <mxCell id="WIyWlLk6GJQsqaUBKTNV-0" />
        <mxCell id="WIyWlLk6GJQsqaUBKTNV-1" parent="WIyWlLk6GJQsqaUBKTNV-0" />
        <mxCell id="DvchbdSIZYe9JUQncs_V-34" style="edgeStyle=orthogonalEdgeStyle;rounded=0;jumpStyle=arc;orthogonalLoop=1;jettySize=auto;html=1;exitX=0.5;exitY=1;exitDx=0;exitDy=0;entryX=0.5;entryY=0;entryDx=0;entryDy=0;fontSize=15;" edge="1" parent="WIyWlLk6GJQsqaUBKTNV-1" source="DvchbdSIZYe9JUQncs_V-31" target="DvchbdSIZYe9JUQncs_V-32">
          <mxGeometry relative="1" as="geometry" />
        </mxCell>
        <mxCell id="DvchbdSIZYe9JUQncs_V-35" style="edgeStyle=orthogonalEdgeStyle;rounded=0;jumpStyle=arc;orthogonalLoop=1;jettySize=auto;html=1;exitX=0.5;exitY=1;exitDx=0;exitDy=0;entryX=0.5;entryY=0;entryDx=0;entryDy=0;fontSize=15;" edge="1" parent="WIyWlLk6GJQsqaUBKTNV-1" source="DvchbdSIZYe9JUQncs_V-31" target="DvchbdSIZYe9JUQncs_V-33">
          <mxGeometry relative="1" as="geometry" />
        </mxCell>
        <mxCell id="DvchbdSIZYe9JUQncs_V-31" value="&lt;font size=&quot;1&quot;&gt;Node Circuit (MNT4)&lt;br&gt;&lt;/font&gt;" style="ellipse;whiteSpace=wrap;html=1;rounded=0;fontSize=15;fillColor=#f5f5f5;strokeColor=#666666;fontColor=#333333;" vertex="1" parent="WIyWlLk6GJQsqaUBKTNV-1">
          <mxGeometry x="560" y="80" width="80" height="40" as="geometry" />
        </mxCell>
        <mxCell id="DvchbdSIZYe9JUQncs_V-40" style="edgeStyle=orthogonalEdgeStyle;rounded=0;jumpStyle=arc;orthogonalLoop=1;jettySize=auto;html=1;exitX=0.5;exitY=1;exitDx=0;exitDy=0;entryX=0.5;entryY=0;entryDx=0;entryDy=0;fontSize=15;" edge="1" parent="WIyWlLk6GJQsqaUBKTNV-1" source="DvchbdSIZYe9JUQncs_V-32" target="DvchbdSIZYe9JUQncs_V-38">
          <mxGeometry relative="1" as="geometry" />
        </mxCell>
        <mxCell id="DvchbdSIZYe9JUQncs_V-41" style="edgeStyle=orthogonalEdgeStyle;rounded=0;jumpStyle=arc;orthogonalLoop=1;jettySize=auto;html=1;exitX=0.5;exitY=1;exitDx=0;exitDy=0;entryX=0.5;entryY=0;entryDx=0;entryDy=0;fontSize=15;" edge="1" parent="WIyWlLk6GJQsqaUBKTNV-1" source="DvchbdSIZYe9JUQncs_V-32" target="DvchbdSIZYe9JUQncs_V-39">
          <mxGeometry relative="1" as="geometry" />
        </mxCell>
        <mxCell id="DvchbdSIZYe9JUQncs_V-32" value="&lt;font size=&quot;1&quot;&gt;Node Circuit (MNT6)&lt;br&gt;&lt;/font&gt;" style="ellipse;whiteSpace=wrap;html=1;rounded=0;fontSize=15;fillColor=#f5f5f5;strokeColor=#666666;fontColor=#333333;" vertex="1" parent="WIyWlLk6GJQsqaUBKTNV-1">
          <mxGeometry x="440" y="160" width="80" height="40" as="geometry" />
        </mxCell>
        <mxCell id="DvchbdSIZYe9JUQncs_V-42" style="edgeStyle=orthogonalEdgeStyle;rounded=0;jumpStyle=arc;orthogonalLoop=1;jettySize=auto;html=1;exitX=0.5;exitY=1;exitDx=0;exitDy=0;entryX=0.5;entryY=0;entryDx=0;entryDy=0;fontSize=15;" edge="1" parent="WIyWlLk6GJQsqaUBKTNV-1" source="DvchbdSIZYe9JUQncs_V-33" target="DvchbdSIZYe9JUQncs_V-36">
          <mxGeometry relative="1" as="geometry" />
        </mxCell>
        <mxCell id="DvchbdSIZYe9JUQncs_V-43" style="edgeStyle=orthogonalEdgeStyle;rounded=0;jumpStyle=arc;orthogonalLoop=1;jettySize=auto;html=1;exitX=0.5;exitY=1;exitDx=0;exitDy=0;entryX=0.5;entryY=0;entryDx=0;entryDy=0;fontSize=15;" edge="1" parent="WIyWlLk6GJQsqaUBKTNV-1" source="DvchbdSIZYe9JUQncs_V-33" target="DvchbdSIZYe9JUQncs_V-37">
          <mxGeometry relative="1" as="geometry" />
        </mxCell>
        <mxCell id="DvchbdSIZYe9JUQncs_V-33" value="&lt;font size=&quot;1&quot;&gt;Node Circuit (MNT6)&lt;br&gt;&lt;/font&gt;" style="ellipse;whiteSpace=wrap;html=1;rounded=0;fontSize=15;fillColor=#f5f5f5;strokeColor=#666666;fontColor=#333333;" vertex="1" parent="WIyWlLk6GJQsqaUBKTNV-1">
          <mxGeometry x="680" y="160" width="80" height="40" as="geometry" />
        </mxCell>
        <mxCell id="DvchbdSIZYe9JUQncs_V-49" style="edgeStyle=orthogonalEdgeStyle;rounded=0;jumpStyle=arc;orthogonalLoop=1;jettySize=auto;html=1;exitX=0.5;exitY=1;exitDx=0;exitDy=0;dashed=1;endArrow=none;endFill=0;fontSize=15;" edge="1" parent="WIyWlLk6GJQsqaUBKTNV-1" source="DvchbdSIZYe9JUQncs_V-36">
          <mxGeometry relative="1" as="geometry">
            <mxPoint x="620" y="320" as="targetPoint" />
          </mxGeometry>
        </mxCell>
        <mxCell id="DvchbdSIZYe9JUQncs_V-50" style="edgeStyle=orthogonalEdgeStyle;rounded=0;jumpStyle=arc;orthogonalLoop=1;jettySize=auto;html=1;exitX=0.5;exitY=1;exitDx=0;exitDy=0;dashed=1;endArrow=none;endFill=0;fontSize=15;" edge="1" parent="WIyWlLk6GJQsqaUBKTNV-1" source="DvchbdSIZYe9JUQncs_V-36">
          <mxGeometry relative="1" as="geometry">
            <mxPoint x="700" y="320" as="targetPoint" />
          </mxGeometry>
        </mxCell>
        <mxCell id="DvchbdSIZYe9JUQncs_V-36" value="&lt;font size=&quot;1&quot;&gt;Node Circuit (MNT4)&lt;br&gt;&lt;/font&gt;" style="ellipse;whiteSpace=wrap;html=1;rounded=0;fontSize=15;fillColor=#f5f5f5;strokeColor=#666666;fontColor=#333333;" vertex="1" parent="WIyWlLk6GJQsqaUBKTNV-1">
          <mxGeometry x="620" y="240" width="80" height="40" as="geometry" />
        </mxCell>
        <mxCell id="DvchbdSIZYe9JUQncs_V-51" style="edgeStyle=orthogonalEdgeStyle;rounded=0;jumpStyle=arc;orthogonalLoop=1;jettySize=auto;html=1;exitX=0.5;exitY=1;exitDx=0;exitDy=0;dashed=1;endArrow=none;endFill=0;fontSize=15;" edge="1" parent="WIyWlLk6GJQsqaUBKTNV-1" source="DvchbdSIZYe9JUQncs_V-37">
          <mxGeometry relative="1" as="geometry">
            <mxPoint x="740" y="320" as="targetPoint" />
          </mxGeometry>
        </mxCell>
        <mxCell id="DvchbdSIZYe9JUQncs_V-52" style="edgeStyle=orthogonalEdgeStyle;rounded=0;jumpStyle=arc;orthogonalLoop=1;jettySize=auto;html=1;exitX=0.5;exitY=1;exitDx=0;exitDy=0;dashed=1;endArrow=none;endFill=0;fontSize=15;" edge="1" parent="WIyWlLk6GJQsqaUBKTNV-1" source="DvchbdSIZYe9JUQncs_V-37">
          <mxGeometry relative="1" as="geometry">
            <mxPoint x="820" y="320" as="targetPoint" />
          </mxGeometry>
        </mxCell>
        <mxCell id="DvchbdSIZYe9JUQncs_V-37" value="&lt;font size=&quot;1&quot;&gt;Node Circuit (MNT4)&lt;br&gt;&lt;/font&gt;" style="ellipse;whiteSpace=wrap;html=1;rounded=0;fontSize=15;fillColor=#f5f5f5;strokeColor=#666666;fontColor=#333333;" vertex="1" parent="WIyWlLk6GJQsqaUBKTNV-1">
          <mxGeometry x="740" y="240" width="80" height="40" as="geometry" />
        </mxCell>
        <mxCell id="DvchbdSIZYe9JUQncs_V-45" style="edgeStyle=orthogonalEdgeStyle;rounded=0;jumpStyle=arc;orthogonalLoop=1;jettySize=auto;html=1;exitX=0.5;exitY=1;exitDx=0;exitDy=0;fontSize=15;dashed=1;endArrow=none;endFill=0;" edge="1" parent="WIyWlLk6GJQsqaUBKTNV-1" source="DvchbdSIZYe9JUQncs_V-38">
          <mxGeometry relative="1" as="geometry">
            <mxPoint x="380" y="320" as="targetPoint" />
          </mxGeometry>
        </mxCell>
        <mxCell id="DvchbdSIZYe9JUQncs_V-46" style="edgeStyle=orthogonalEdgeStyle;rounded=0;jumpStyle=arc;orthogonalLoop=1;jettySize=auto;html=1;exitX=0.5;exitY=1;exitDx=0;exitDy=0;dashed=1;endArrow=none;endFill=0;fontSize=15;" edge="1" parent="WIyWlLk6GJQsqaUBKTNV-1" source="DvchbdSIZYe9JUQncs_V-38">
          <mxGeometry relative="1" as="geometry">
            <mxPoint x="460" y="320" as="targetPoint" />
            <Array as="points">
              <mxPoint x="420" y="300" />
              <mxPoint x="460" y="300" />
              <mxPoint x="460" y="320" />
            </Array>
          </mxGeometry>
        </mxCell>
        <mxCell id="DvchbdSIZYe9JUQncs_V-38" value="&lt;font size=&quot;1&quot;&gt;Node Circuit (MNT4)&lt;br&gt;&lt;/font&gt;" style="ellipse;whiteSpace=wrap;html=1;rounded=0;fontSize=15;fillColor=#f5f5f5;strokeColor=#666666;fontColor=#333333;" vertex="1" parent="WIyWlLk6GJQsqaUBKTNV-1">
          <mxGeometry x="380" y="240" width="80" height="40" as="geometry" />
        </mxCell>
        <mxCell id="DvchbdSIZYe9JUQncs_V-47" style="edgeStyle=orthogonalEdgeStyle;rounded=0;jumpStyle=arc;orthogonalLoop=1;jettySize=auto;html=1;exitX=0.5;exitY=1;exitDx=0;exitDy=0;dashed=1;endArrow=none;endFill=0;fontSize=15;" edge="1" parent="WIyWlLk6GJQsqaUBKTNV-1" source="DvchbdSIZYe9JUQncs_V-39">
          <mxGeometry relative="1" as="geometry">
            <mxPoint x="500" y="320" as="targetPoint" />
          </mxGeometry>
        </mxCell>
        <mxCell id="DvchbdSIZYe9JUQncs_V-48" style="edgeStyle=orthogonalEdgeStyle;rounded=0;jumpStyle=arc;orthogonalLoop=1;jettySize=auto;html=1;exitX=0.5;exitY=1;exitDx=0;exitDy=0;dashed=1;endArrow=none;endFill=0;fontSize=15;" edge="1" parent="WIyWlLk6GJQsqaUBKTNV-1" source="DvchbdSIZYe9JUQncs_V-39">
          <mxGeometry relative="1" as="geometry">
            <mxPoint x="580" y="320" as="targetPoint" />
          </mxGeometry>
        </mxCell>
        <mxCell id="DvchbdSIZYe9JUQncs_V-39" value="&lt;font size=&quot;1&quot;&gt;Node Circuit (MNT4)&lt;br&gt;&lt;/font&gt;" style="ellipse;whiteSpace=wrap;html=1;rounded=0;fontSize=15;fillColor=#f5f5f5;strokeColor=#666666;fontColor=#333333;" vertex="1" parent="WIyWlLk6GJQsqaUBKTNV-1">
          <mxGeometry x="500" y="240" width="80" height="40" as="geometry" />
        </mxCell>
        <mxCell id="DvchbdSIZYe9JUQncs_V-61" style="edgeStyle=orthogonalEdgeStyle;rounded=0;jumpStyle=arc;orthogonalLoop=1;jettySize=auto;html=1;exitX=0.5;exitY=0;exitDx=0;exitDy=0;dashed=1;endArrow=none;endFill=0;fontSize=15;" edge="1" parent="WIyWlLk6GJQsqaUBKTNV-1" source="DvchbdSIZYe9JUQncs_V-53">
          <mxGeometry relative="1" as="geometry">
            <mxPoint x="250.0344827586207" y="360" as="targetPoint" />
          </mxGeometry>
        </mxCell>
        <mxCell id="DvchbdSIZYe9JUQncs_V-53" value="..." style="ellipse;whiteSpace=wrap;html=1;rounded=0;fontSize=15;fillColor=#f5f5f5;strokeColor=#666666;fontColor=#333333;" vertex="1" parent="WIyWlLk6GJQsqaUBKTNV-1">
          <mxGeometry x="210" y="380" width="80" height="40" as="geometry" />
        </mxCell>
        <mxCell id="DvchbdSIZYe9JUQncs_V-62" style="edgeStyle=orthogonalEdgeStyle;rounded=0;jumpStyle=arc;orthogonalLoop=1;jettySize=auto;html=1;exitX=0.5;exitY=0;exitDx=0;exitDy=0;dashed=1;endArrow=none;endFill=0;fontSize=15;" edge="1" parent="WIyWlLk6GJQsqaUBKTNV-1" source="DvchbdSIZYe9JUQncs_V-54">
          <mxGeometry relative="1" as="geometry">
            <mxPoint x="350.0344827586207" y="360" as="targetPoint" />
          </mxGeometry>
        </mxCell>
        <mxCell id="DvchbdSIZYe9JUQncs_V-54" value="&lt;font size=&quot;1&quot;&gt;Leaf Circuit (MNT6)&lt;br&gt;&lt;/font&gt;" style="ellipse;whiteSpace=wrap;html=1;rounded=0;fontSize=15;fillColor=#f5f5f5;strokeColor=#666666;fontColor=#333333;" vertex="1" parent="WIyWlLk6GJQsqaUBKTNV-1">
          <mxGeometry x="310" y="380" width="80" height="40" as="geometry" />
        </mxCell>
        <mxCell id="DvchbdSIZYe9JUQncs_V-63" style="edgeStyle=orthogonalEdgeStyle;rounded=0;jumpStyle=arc;orthogonalLoop=1;jettySize=auto;html=1;exitX=0.5;exitY=0;exitDx=0;exitDy=0;dashed=1;endArrow=none;endFill=0;fontSize=15;" edge="1" parent="WIyWlLk6GJQsqaUBKTNV-1" source="DvchbdSIZYe9JUQncs_V-55">
          <mxGeometry relative="1" as="geometry">
            <mxPoint x="450.1428571428571" y="360" as="targetPoint" />
          </mxGeometry>
        </mxCell>
        <mxCell id="DvchbdSIZYe9JUQncs_V-55" value="&lt;font size=&quot;1&quot;&gt;Leaf Circuit (MNT6)&lt;br&gt;&lt;/font&gt;" style="ellipse;whiteSpace=wrap;html=1;rounded=0;fontSize=15;fillColor=#f5f5f5;strokeColor=#666666;fontColor=#333333;" vertex="1" parent="WIyWlLk6GJQsqaUBKTNV-1">
          <mxGeometry x="410" y="380" width="80" height="40" as="geometry" />
        </mxCell>
        <mxCell id="DvchbdSIZYe9JUQncs_V-64" style="edgeStyle=orthogonalEdgeStyle;rounded=0;jumpStyle=arc;orthogonalLoop=1;jettySize=auto;html=1;exitX=0.5;exitY=0;exitDx=0;exitDy=0;dashed=1;endArrow=none;endFill=0;fontSize=15;" edge="1" parent="WIyWlLk6GJQsqaUBKTNV-1" source="DvchbdSIZYe9JUQncs_V-56">
          <mxGeometry relative="1" as="geometry">
            <mxPoint x="550.1428571428571" y="360" as="targetPoint" />
          </mxGeometry>
        </mxCell>
        <mxCell id="DvchbdSIZYe9JUQncs_V-56" value="&lt;font size=&quot;1&quot;&gt;Leaf Circuit (MNT6)&lt;br&gt;&lt;/font&gt;" style="ellipse;whiteSpace=wrap;html=1;rounded=0;fontSize=15;fillColor=#f5f5f5;strokeColor=#666666;fontColor=#333333;" vertex="1" parent="WIyWlLk6GJQsqaUBKTNV-1">
          <mxGeometry x="510" y="380" width="80" height="40" as="geometry" />
        </mxCell>
        <mxCell id="DvchbdSIZYe9JUQncs_V-65" style="edgeStyle=orthogonalEdgeStyle;rounded=0;jumpStyle=arc;orthogonalLoop=1;jettySize=auto;html=1;exitX=0.5;exitY=0;exitDx=0;exitDy=0;dashed=1;endArrow=none;endFill=0;fontSize=15;" edge="1" parent="WIyWlLk6GJQsqaUBKTNV-1" source="DvchbdSIZYe9JUQncs_V-57">
          <mxGeometry relative="1" as="geometry">
            <mxPoint x="650.1428571428571" y="360" as="targetPoint" />
          </mxGeometry>
        </mxCell>
        <mxCell id="DvchbdSIZYe9JUQncs_V-57" value="&lt;font size=&quot;1&quot;&gt;Leaf Circuit (MNT6)&lt;br&gt;&lt;/font&gt;" style="ellipse;whiteSpace=wrap;html=1;rounded=0;fontSize=15;fillColor=#f5f5f5;strokeColor=#666666;fontColor=#333333;" vertex="1" parent="WIyWlLk6GJQsqaUBKTNV-1">
          <mxGeometry x="610" y="380" width="80" height="40" as="geometry" />
        </mxCell>
        <mxCell id="DvchbdSIZYe9JUQncs_V-66" style="edgeStyle=orthogonalEdgeStyle;rounded=0;jumpStyle=arc;orthogonalLoop=1;jettySize=auto;html=1;exitX=0.5;exitY=0;exitDx=0;exitDy=0;dashed=1;endArrow=none;endFill=0;fontSize=15;" edge="1" parent="WIyWlLk6GJQsqaUBKTNV-1" source="DvchbdSIZYe9JUQncs_V-58">
          <mxGeometry relative="1" as="geometry">
            <mxPoint x="750.1428571428571" y="360" as="targetPoint" />
          </mxGeometry>
        </mxCell>
        <mxCell id="DvchbdSIZYe9JUQncs_V-58" value="&lt;font size=&quot;1&quot;&gt;Leaf Circuit (MNT6)&lt;br&gt;&lt;/font&gt;" style="ellipse;whiteSpace=wrap;html=1;rounded=0;fontSize=15;fillColor=#f5f5f5;strokeColor=#666666;fontColor=#333333;" vertex="1" parent="WIyWlLk6GJQsqaUBKTNV-1">
          <mxGeometry x="710" y="380" width="80" height="40" as="geometry" />
        </mxCell>
        <mxCell id="DvchbdSIZYe9JUQncs_V-67" style="edgeStyle=orthogonalEdgeStyle;rounded=0;jumpStyle=arc;orthogonalLoop=1;jettySize=auto;html=1;exitX=0.5;exitY=0;exitDx=0;exitDy=0;dashed=1;endArrow=none;endFill=0;fontSize=15;" edge="1" parent="WIyWlLk6GJQsqaUBKTNV-1" source="DvchbdSIZYe9JUQncs_V-59">
          <mxGeometry relative="1" as="geometry">
            <mxPoint x="850.1428571428571" y="360" as="targetPoint" />
          </mxGeometry>
        </mxCell>
        <mxCell id="DvchbdSIZYe9JUQncs_V-59" value="&lt;font size=&quot;1&quot;&gt;Leaf Circuit (MNT6)&lt;br&gt;&lt;/font&gt;" style="ellipse;whiteSpace=wrap;html=1;rounded=0;fontSize=15;fillColor=#f5f5f5;strokeColor=#666666;fontColor=#333333;" vertex="1" parent="WIyWlLk6GJQsqaUBKTNV-1">
          <mxGeometry x="810" y="380" width="80" height="40" as="geometry" />
        </mxCell>
        <mxCell id="DvchbdSIZYe9JUQncs_V-68" style="edgeStyle=orthogonalEdgeStyle;rounded=0;jumpStyle=arc;orthogonalLoop=1;jettySize=auto;html=1;exitX=0.5;exitY=0;exitDx=0;exitDy=0;dashed=1;endArrow=none;endFill=0;fontSize=15;" edge="1" parent="WIyWlLk6GJQsqaUBKTNV-1" source="DvchbdSIZYe9JUQncs_V-60">
          <mxGeometry relative="1" as="geometry">
            <mxPoint x="950.1428571428571" y="360" as="targetPoint" />
          </mxGeometry>
        </mxCell>
        <mxCell id="DvchbdSIZYe9JUQncs_V-60" value="..." style="ellipse;whiteSpace=wrap;html=1;rounded=0;fontSize=15;fillColor=#f5f5f5;strokeColor=#666666;fontColor=#333333;" vertex="1" parent="WIyWlLk6GJQsqaUBKTNV-1">
          <mxGeometry x="910" y="380" width="80" height="40" as="geometry" />
        </mxCell>
      </root>
    </mxGraphModel>
  </diagram>
</mxfile>
